<svg id="Layer_1" data-name="Layer 1" xmlns="http://www.w3.org/2000/svg" viewBox="0 0 722.94 1022"><title>Omods</title><path d="M497,2c-15.26,0-15.26,0-14.86,15.65.07,2.67.13,5.33.33,8,.3,4,2.57,5.87,6.52,5.46,11.15-1.14,18.69,4.58,25.55,12.52,13.17,15.23,27.5,30,43.15,42,16.54,12.64,17.44,28.18,18.37,45.09.74,13.24.12,26.55.43,39.82.17,7.13,2.43,13.75,4.94,20.51,6.47,17.38,11.94,35.14,13.28,54.4,3.51-4.51,1.26-9.73,2.55-15.55,5.11,6.12,4.3,12,2.3,17.38-3.91,10.41-4.61,22.15-12.68,30.93-2.79,3-1.61,6.74-.16,10.07,8,18.48,7.55,38.78,12.21,58,1.18,4.87,1.51,9.36,4.93,13.6,4,4.95,5.73,11.27,7.27,17.6-3.6.53-3.32-2.9-5.61-3.58a7.16,7.16,0,0,0,0,2.33c1.85,5,3.77,9.94,7.31,14.11,3.85,4.53,8.52,8.11,5.68,16-2.19,6.1,11.83,24.89,18.34,26.57,2.61.67,4,2.25,5.55,4,15.13,17.61,28.48,36.36,37,58.16C683.3,505,691.24,512,697.7,520c18.31,22.73,35,46.38,42.67,75.08,4.43,16.47,5.8,33.13,3.13,50.13-2.62,16.71,2.92,32.89,4,49.38,2.27,33.52.89,66.34-15.75,96.72-1.8,3.3-3.28,6.9-7.71,8.94,21.66-40.4,21.67-83.09,13.76-126.6v11.49c0,3.85,0,7.7,0,11.55,0,24.18-2.91,47.84-12.83,70.22-.72,1.62-1.19,3.45-2.26,4.81-14.57,18.64-25.62,39.52-38.21,59.44a31.3,31.3,0,0,1-12.29,11.22c4.32-10.64,13.06-16.87,15.18-27.14-12.65,13.08-24.14,27.33-38.7,38.46a233,233,0,0,1-47,28.35c-17,7.52-34.55,13.52-52.08,19.48,57.26.37,105.33-18.8,140-66.68-6.57,14.17-16.76,25-28.46,34.43-26.15,21-56.16,32.47-89.55,35-28.57,2.14-57,4.55-85.47,8.51-52.64,7.34-103.76-.6-153-20.72-28.21-11.52-54.07-26.5-76.63-47.25-14.71-13.52-26.41-29.06-33.07-47.71-13.89-38.9-25.39-78.66-22.69-120.47,2.77-42.85,7-85.66,29.72-124,4.14-7,5.72-15.49,8.39-23.32,13.48-39.58,35.9-73.78,62.72-105.46,11.06-13.05,22.54-25.74,29.78-41.74a174,174,0,0,0,15.13-62.27c.8-13.58.73-27.21,1.14-40.81.11-3.72-1.26-6.89-2.76-10.15-2.91-6.36-5.61-12.81-8.42-19.26,3.68-1.38,3.38,2.64,5.61,2.49,2.57-17-2.06-34.57,4.66-51.07,2.95,5-.9,10.16.9,15.08,5.85-11.68,7.28-40.19.92-51.1-5.59-9.57-2.79-17.61,1.37-25.95,5.19-10.37,12.2-19.6,19.12-28.83,9.62-12.83,18.51-26.12,25.25-40.66,3.06-6.6,10.4-9.31,12.89-16.58,1.64-4.81-.84-13.15,9.6-13.09,5.35,0,10.39-5.19,16.78-3.31,4.79,1.4,7.15-.65,8.85-5.66C450.58,6.78,447.48,2,422.18,2M411.1,617c4-10.17,5.51-19.36,10-27.45,2.4-4.31,5.28-9,10.42-8.56,13.66,1.07,27.64.32,39.51,10.08,18.45,15.16,25.67,35.49,29.35,57.92,3.31,20.23-2.8,32.54-21.47,40.49-6.85,2.92-13,4.63-5.77,13.28,1,1.21.73,4.19,0,6-2.32,6-1.72,12.25-1.87,18.44-.45,18.76,3.89,37,6,55.48,1.26,11.23,4.41,22,6.82,32.95.7,3.19.85,6.69-2.31,8.91-3.69,2.59-6.14-.27-8.34-2.58-3.19-3.34-5.23-2.67-8.61.4-15.06,13.65-32.53,17-50.93,8.27s-27.58-24.6-28.28-44.85c-.34-10.12,3.51-18.47,13.65-22.84a29.12,29.12,0,0,0,7.27-5c6.58-5.75,14.07-7.27,22.37-5.19,6.6,1.65,13.18,3.38,19.7,5.28,4.77,1.39,6.91.76,6.68-5.11-.57-13.88-1.42-27.87-.25-41.65,1-11.18-.55-17.37-13.31-19.56-10.49-1.81-17.48-11.93-26.47-17-13.41-7.5-21.75-18.3-27.65-31.24-21.9-48-32.54-98.26-26.35-151.12,4.26-36.34,14.05-70.88,38.58-99.52,3.35-3.91,4.66-8.42,3.08-13.24-6.65-20.27-6.27-40.17,2.5-59.76,2.41-5.4,0-8-5.08-10-10.28-3.91-19.66-9.59-28.83-15.63-2.38-1.57-4.74-4.8-7.74-3.35-3.5,1.7-2.17,5.78-2.23,8.89-.48,25.07,1.08,50.19-7.84,74.61-1.9,5.2-7.58,15.26,3.85,19.75a3.11,3.11,0,0,1-.35,2.3c-7.28,5.1-7.16,14.38-11.31,21.4-3.39-2.59.42-5.6-3.32-9.6A279,279,0,0,1,281,521.56c18.54-31.06,39.34-60.91,50.18-96-5.83,7.12-9.33,15.81-15.72,22.44-13.91,14.42-23.17,32-33.79,48.69-41,64.69-56.16,135.37-50.51,211.14.37,5,0,10.13,0,15.2l-2.45,0C224.12,700.22,226.36,677,225,654c-4.63,34.7-8.31,69.3,11.94,101.14,2.57-.68-.28-5.79,4.56-5.15,1.43,12.58,3.7,24.93,11.17,35.83,19.46,28.37,43.49,51.58,74.68,66.62a240.59,240.59,0,0,0,69,21.24c18.37,2.8,36.69,5.62,55.19,6.81,26.46,1.7,52.59-2.34,78.44-7.29,35.59-6.81,69.1-19.24,97.54-42.44,14-11.39,24.7-25.6,30.18-43.25-9.72,10.94-20.11,21-32.08,29.47,3.45-5.82,8.38-10.25,12.55-15.31,9.45-11.46,22.14-21,23-37.75,0-.62.15-3.29,1.44-1.43,3.33,4.83,4.08.25,4.87-1.28,4.61-8.92,9.41-17.71,12.36-27.47,6.79-22.49,11.41-45.37,12.4-68.83,1.5-35.58,1.34-70.86-13.5-104.59-6.86-15.57-20.45-28.9-17.75-48.09.14-1-.79-2.2-1.33-3.24-5.32-10.25-9.93-20.94-16.13-30.62A560.23,560.23,0,0,1,605.91,410a62.55,62.55,0,0,0-11.67-17.74c-6-6.17-9.22-13.58-12.3-21.32-9-22.79-10.71-46.57-9.75-70.7.27-6.87-1-9.31-8.4-6-12.18,5.54-25.19,8-38.52,9.84-20.93,2.84-42,1.8-62.91,2.36-17.72.48-24.35,10.82-30.47,23.34-2.78,5.71-3.39,12.52-4.75,18.88-.34,1.61-.37,4,.57,5,1.87,2,3.8-.22,5.39-1.2,10.06-6.17,20.76-5.95,31.79-3.7,8.31,1.7,16.24,7.22,25.31,1.48,2.58-1.63,6.23,1,8.73,3.22,4.05,3.65,6.42,8.24,8.33,13.36,5.79,15.55,5,31.38,2.36,47.21-5.25,30.84-34.44,46.8-63.69,35.32-9.45-3.71-18.24-7.81-25-16-5.42-6.56-7.5-5.77-10.19,2.65-4,12.41-7.5,24.94-11.22,37.42-.89,3-1.38,5.59,2.29,7.46s5.94,1.19,8.2-2.05a32.89,32.89,0,0,1,12.9-10.62c14.51-7.1,25.08-1.9,29.09,13.59,1.94,7.5,5,14.71,7.95,23.1,8.9-15.49,11.87-20.25,27.61-25.85,19-6.78,43.2-6.58,49.17,19.51,4.16,18.15,8.57,36.25,12.83,54.38.88,3.71,2.64,8.34-2.3,10-5.55,1.83-6.68-3.38-8.15-7.16-5.29-13.49-10.36-27.08-15.79-40.52A41.33,41.33,0,0,0,506,494.52c-13.3-7.92-24.42-4.72-30,9.81-5.69,14.94-10.61,30.24-5.3,46.64,1.17,3.62,1.4,7.56,1.85,11.38.31,2.67-.76,4.71-3.72,5-5.17.56-19.77-9.48-21.32-14.6-4.84-15.89-6.79-32.42-10.61-48.52-1.55-6.55-1-16.9-8.78-17.69-8.85-.89-12.25,8.77-15.39,16.17-5.76,13.58-7.88,27.82-7.44,42.51.23,7.65-1.36,14.28-10.18,16.37-2.75.65-4.1,2.53-3.58,5.24C394.85,584.29,399.23,601.31,411.1,617ZM381.41,246.08l.19-2.76c40.18.89,79.54,11.48,120.77,12.45-2.31-4.41-5.32-3.9-7.69-4.6C468,243.23,440.62,238,413.3,232.78c-7.46-1.43-13.93-4.88-20.44-8.78a7,7,0,0,1,4.24-.83,437.75,437.75,0,0,1,103.37,20.32c14.52,4.77,28.3,7.64,43,1.39,6.51-2.76,13.48-4.48,20.31-6.4,2.59-.73,5.16-3,10,.1-11.16,5.19-22.79,6.44-32,11.86-9.47,5.57-19.84,4.23-30.85,7.7l28.65,3.59c-.09.8-.19,1.59-.28,2.39a106.67,106.67,0,0,1-21.86-.54c-11.72-1.41-23.57-3.71-35.21-.29-2.58.76-15.79-2.22-5,8a2.84,2.84,0,0,1,.31,2.5c-2.69,7-2,16.36-12.51,18-1.61.25-3.15,1.64-4.48,2.78-2.39,2.05-2.84,4.18,1,4.71,6.13.84,12.23,2.5,18.51,1.56,15.51-2.33,31.05-4.41,46.47-7.19,6-1.08,12.25-1.83,17.48-6.43H528.32c4.3-3.79,8.26-3.25,12-3.62,9.79-1,19.73-2.48,28.14-7.41,8.71-5.1,20.2-10.19,18.84-22.57-1.14-10.44-.46-23-9.76-30.29s-6.73-15.59-5-23.77c1.32-6.22.67-7.06-5.57-6.27-26.26,3.33-51.73,12-78.56,11.46-.87,0-1.75.3-2.63.34-27.78,1.23-55.6,3.48-83.1-2.86-10-2.29-19.75-5.13-28.13-11.79,14.38,1.08,28.16,5.29,42.38,6.72s28.62,3.19,43,2.54c-21.55-2.62-43.12-5-63.7-12.4,22.73,3.63,45.65,5.52,68.4,8.63,34.09,4.66,67.09-3,100.45-6.82,5.58-.64,7.17-3.88,6.5-9.36a186,186,0,0,1-1-19.48c-.18-10.79-2.55-12.47-13.31-14.86-15.16-3.37-30.2,1.69-45.07-.34-27.36-3.74-54.95-2.76-82.33-5.34-8.32-.78-16.88-1.62-24.46-5.77,11.67-.32,23,3.58,34.52,1.7a248,248,0,0,1,95.21,2.56c8.48,1.92,18.18-3.17,25.65,4.77,1.56,1.66,2.62-.8,3.46-2.94,5-12.67,3.27-25.74-2.05-36.83-7-14.57-19.92-25.1-32.44-35.39,7.31,10.62,16.19,20,24.1,30.16-10.65-6.31-18.78-15.11-26.51-24.36C519.47,64.17,513.71,53,504.5,44.37c-4.63-4.34-12.08-6.13-14.22-3.27-5.46,7.3-10.22,3.33-16.17,2.57-13.94-1.78-28.16,0-42.14-2.38-3-.51-6.36-.71-8,2.38-7.5,14.48-19.31,26.05-26.36,41-6.92,14.67-11.45,31.47-27.28,40.38-1.4.79-2.12,2.79-3.11,4.26-11.06,16.36-7.85,34.65-6.67,52.5.44,6.59,1.18,13.78,7.59,18.21-6,12.11,8,15.49,10.5,23.92.32,1.1,1.17,2.06-.18,3.54-6.86-.47-10.6-10-19.64-7.15,0,5.14,1.14,10.75-.2,15.69-4.82,17.7,5.51,31.58,13.54,44.16,7.78,12.19,23.89,15.34,38.53,17.34,1.42.2,3.28.15,3.68-1.64.54-2.48-1.76-2.64-3.3-3.27-4.8-1.95-9.63-3.85-14.45-5.77l.75-2.19c5.21,1.54,10.44,3,15.61,4.67,2.66.86,5.3,1.66,7.44-.63a114,114,0,0,1,24.44-19.61c-16.73-1-33.29,3.54-49.1-3.57,19,1.88,37.7-1,56.43-3a23.67,23.67,0,0,0,6-1.28c1.53-.59,3.56-1.49,3.1-3.67-.36-1.7-2.24-1.71-3.67-1.89-10.27-1.29-20.55-2.51-30.82-3.79Q404.13,249,381.41,246.08Zm41.71,637.63a103.2,103.2,0,0,0,45.7,10.6c26.91,0,53.44-5.65,79.68-11.75,14.8-3.44,29.47-7.44,45.79-11.6-11.52,9.32-76.53,23.52-113.39,26.79,18.14,3,35.23,7.18,52,3.23,34.71-8.18,67.86-20.84,97.67-41,9.88-6.66,19.68-13.65,27.1-23.67-4.09-1.31-8.1.33-12-2.56,26.12-32.78,42-69.66,48.44-110.51a88.32,88.32,0,0,0-4.43,12.47c-12.24,39.73-32,75.08-61.79,104.34-9.51,9.35-19.23,19.09-33.25,22-.84-2.57,2.89-2.62,1.34-5.59-26.8,13-55.3,20.11-84.73,24.23C482,884.83,452.61,884.06,423.12,883.71ZM227.73,791q12.42,38.46,46.19,60.5c5,3.23,12.38,5.18,14.54,9.7,4.81,10,14.13,12.6,22.3,16.89,40.17,21.1,83.35,31.64,128.43,34.21,24.37,1.38,48.42-2.57,70.75-6.45-37.54-11.42-77.65-.5-117.88-8.56,3.31,3.18,7.63,2,9.1,6.57-9.39-.25-17.5-4-25.67-6.86-37.59-13.39-73.8-29.29-101.53-59.51-10.21-11.13-17.16-24.76-27.53-35.84-8.93-9.54-15-21.29-22.66-31.84,6.75,19,19.58,34.28,30.61,50.77C243.28,812.62,235.64,801.71,227.73,791ZM470.92,371.09c-19.46-.69-28.18,9.87-34.56,23.37-4.62,9.78-3,19.2,3.65,27.32,6.9,8.41,17.41,9.92,28,7,12.52-3.49,19.07-10.59,19-23.8,0-4.68,1.21-9.36,1.26-14.05C488.37,376.72,482.63,371.15,470.92,371.09ZM427.37,769.41c-13.53-.22-19,3.43-22.78,14.35-4.06,11.63-2.37,18.4,6.27,25.18,11.88,9.31,32.89,9.25,44.67-.17,1.78-1.42,5.12-3.35,3.24-5.41-5.55-6.09-4.2-13.69-6-20.6C449.06,768.61,436.51,770.68,427.37,769.41Zm45.1-105.67c3.7-1.69,4.15-4.46,3.83-7.07A159.37,159.37,0,0,0,466,616.51c-1.26-3.15-4.05-4-7-4.78-9.51-2.4-14.8,2.8-19.46,10.1-10.15,15.86-10,21.64,2.18,35.17a21.66,21.66,0,0,1,5,8.25c1.24,4.08,4.48,6.29,8.48,6.87s5.32-2.94,7.24-5.53c3.29-4.44,5-10.39,10.93-12.89C474.74,657.44,472.13,660,472.47,663.74ZM291.21,842.17c1.24,2.16,1.52,3.06,2.11,3.61a183.66,183.66,0,0,0,93.11,46.48c1.4.25,3.67.57,4.23-.16,4-5.12,8.59-2.36,12.87-1.15,13.32,3.76,26.79,5.89,40.93,4.12-11,.24-20-3.87-29-9.83-12.15-8.1-27.23-7-40.86-10.65C346.18,867,319.78,854.43,291.21,842.17ZM704.94,633.94c1.16,50.75-.68,100.9-21.24,148.31C708.5,735.44,716.3,686.05,704.94,633.94Zm.67-93.22a655.86,655.86,0,0,1,32.81,94.48C741.25,598.9,727,568.54,705.61,540.72Zm24.46,151.51c-7.51,11.27-18.68,62.86-17.4,77.87C724,745.55,731.33,720.91,730.07,692.23ZM309.66,423.3c-18.56,17.05-56.87,74.26-56.61,90.7C268.58,480.51,293.31,454.54,309.66,423.3ZM719,598.17c3.23,20.07,3.07,40.37,4.8,60.53.4,4.67,3.44,8.4,7.34,11.6C730,645.72,727.18,621.52,719,598.17ZM395.68,490.46c-6.18,20.43-11.24,40.93-4.3,62.13C390.05,531.69,397.65,511.4,395.68,490.46ZM212.81,674.69c-1-19.88,12.59-38,6.38-58.52C213.12,635.21,209.33,654.52,212.81,674.69Z" transform="translate(-122.37 -2)"/><path d="M763.51,907.67a21.31,21.31,0,0,1-4.52-1.14c-12.83-6-26.16-11.1-37.82-19.36a44.06,44.06,0,0,1-8.48-7.7c-2.07-2.52-6.46-4.75-4.25-8.84s6.95-3.15,10.43-2.13c16.77,4.94,32.52,12.42,48,20.48,4.71,2.45,7.49,6.87,6,12.61C771.74,905.91,768.42,907.6,763.51,907.67Z" transform="translate(-122.37 -2)"/><path d="M237.15,873a28.73,28.73,0,0,1-10.55,21.75C217,903,208.3,912.3,199,921a55,55,0,0,1-8.63,6.11,4.73,4.73,0,0,1-7-5.84,72.45,72.45,0,0,1,5-10.28c10.77-17.38,26.32-30,42.17-42.37,1.67-1.3,3.53-2.33,5.7-1.33C237.79,867.94,238.25,869.29,237.15,873Z" transform="translate(-122.37 -2)"/><path d="M430.4,962.24c.42-3.85.45-8.07,4.9-8.65,4-.52,9.06-.48,10.82,4.11,5.71,14.84,13.36,28.93,17.36,44.43a12.15,12.15,0,0,1,.17,3.52c-.48,9.59-5.34,18.21-11,18.35-9.49.23-10.78-7.89-12.92-14.41A177.53,177.53,0,0,1,434,987.34C432.36,979,431.53,970.42,430.4,962.24Z" transform="translate(-122.37 -2)"/><path d="M137,599.68c12.28,0,23,1.75,33.09,6.5,5.74,2.7,8.24,7,6,12.9-2.35,6.18-7.43,3.34-11.44,2.32-8.89-2.25-18.46-.3-27-4.5-.52-.26-1.17-.23-1.71-.45-5.91-2.46-14.54-4.13-13.45-11.77C123.72,595.9,132.65,600.88,137,599.68Z" transform="translate(-122.37 -2)"/><path d="M815,610.11c8.42.79,17.19-1.28,25,3.79,2.45,1.59,5.63,2.81,5.29,6.36-.31,3.21-3.44,3.94-5.9,4.53-13.27,3.13-26.13,9.26-40.42,3.11-6.78-2.92-6.45-7.85-5.94-12.94.57-5.83,5.54-4.89,9.63-4.86S810.89,610.11,815,610.11Z" transform="translate(-122.37 -2)"/></svg>